<svg xmlns="http://www.w3.org/2000/svg" xmlns:xlink="http://www.w3.org/1999/xlink" width="500" zoomAndPan="magnify" viewBox="0 0 375 374.999991" height="500" preserveAspectRatio="xMidYMid meet" version="1.0"><defs><g/><clipPath id="9c989a4a95"><path d="M 132 90.730469 L 246 90.730469 L 246 203.980469 L 132 203.980469 Z M 132 90.730469 " clip-rule="nonzero"/></clipPath><clipPath id="9d02c773c9"><path d="M 147 90.730469 L 232 90.730469 L 232 203.980469 L 147 203.980469 Z M 147 90.730469 " clip-rule="nonzero"/></clipPath><clipPath id="8fcf4b7da3"><path d="M 171 90.730469 L 207 90.730469 L 207 203.980469 L 171 203.980469 Z M 171 90.730469 " clip-rule="nonzero"/></clipPath></defs><rect x="-37.5" width="450" fill="#ffffff" y="-37.499999" height="449.999989" fill-opacity="1"/><rect x="-37.5" width="450" fill="#ffffff" y="-37.499999" height="449.999989" fill-opacity="1"/><g clip-path="url(#9c989a4a95)"><path fill="#145da0" d="M 189.3125 203.949219 C 158.097656 203.949219 132.699219 178.554688 132.699219 147.339844 C 132.699219 116.125 158.097656 90.726562 189.3125 90.726562 C 220.527344 90.726562 245.921875 116.121094 245.921875 147.339844 C 245.921875 178.554688 220.527344 203.949219 189.3125 203.949219 Z M 189.3125 94.929688 C 160.414062 94.929688 136.902344 118.441406 136.902344 147.339844 C 136.902344 176.238281 160.414062 199.75 189.3125 199.75 C 218.210938 199.75 241.71875 176.238281 241.71875 147.339844 C 241.71875 118.441406 218.210938 94.929688 189.3125 94.929688 Z M 189.3125 94.929688 " fill-opacity="1" fill-rule="nonzero"/></g><path fill="#145da0" d="M 189.3125 129.96875 C 173.574219 129.96875 158.421875 123.339844 147.734375 111.777344 L 150.816406 108.925781 C 160.714844 119.628906 174.742188 125.765625 189.3125 125.765625 C 203.878906 125.765625 217.910156 119.628906 227.804688 108.925781 L 230.890625 111.777344 C 220.203125 123.335938 205.046875 129.96875 189.3125 129.96875 Z M 189.3125 129.96875 " fill-opacity="1" fill-rule="nonzero"/><path fill="#145da0" d="M 150.820312 185.964844 L 147.734375 183.113281 C 158.421875 171.550781 173.574219 164.921875 189.3125 164.921875 C 205.046875 164.921875 220.203125 171.550781 230.890625 183.113281 L 227.804688 185.964844 C 217.910156 175.261719 203.882812 169.121094 189.3125 169.121094 C 174.742188 169.121094 160.714844 175.261719 150.820312 185.964844 Z M 150.820312 185.964844 " fill-opacity="1" fill-rule="nonzero"/><g clip-path="url(#9d02c773c9)"><path fill="#145da0" d="M 189.3125 203.949219 C 178.019531 203.949219 167.449219 197.972656 159.546875 187.121094 C 151.792969 176.46875 147.519531 162.339844 147.519531 147.339844 C 147.519531 132.335938 151.792969 118.210938 159.546875 107.558594 C 167.449219 96.703125 178.019531 90.726562 189.3125 90.726562 C 200.601562 90.726562 211.171875 96.703125 219.074219 107.558594 C 226.832031 118.210938 231.101562 132.335938 231.101562 147.339844 C 231.101562 162.339844 226.832031 176.46875 219.074219 187.121094 C 211.171875 197.972656 200.601562 203.949219 189.3125 203.949219 Z M 189.3125 94.929688 C 168.585938 94.929688 151.722656 118.441406 151.722656 147.339844 C 151.722656 176.238281 168.582031 199.75 189.3125 199.75 C 210.039062 199.75 226.902344 176.238281 226.902344 147.339844 C 226.902344 118.441406 210.039062 94.929688 189.3125 94.929688 Z M 189.3125 94.929688 " fill-opacity="1" fill-rule="nonzero"/></g><g clip-path="url(#8fcf4b7da3)"><path fill="#145da0" d="M 189.3125 203.949219 C 184.117188 203.949219 179.671875 197.898438 176.453125 186.453125 C 173.507812 175.976562 171.886719 162.085938 171.886719 147.339844 C 171.886719 132.589844 173.511719 118.699219 176.453125 108.226562 C 179.671875 96.777344 184.117188 90.726562 189.3125 90.726562 C 194.503906 90.726562 198.949219 96.777344 202.167969 108.226562 C 205.113281 118.699219 206.734375 132.589844 206.734375 147.339844 C 206.734375 162.085938 205.113281 175.976562 202.167969 186.453125 C 198.949219 197.898438 194.503906 203.949219 189.3125 203.949219 Z M 189.3125 94.929688 C 183.789062 94.929688 176.089844 114.867188 176.089844 147.339844 C 176.089844 179.8125 183.789062 199.75 189.3125 199.75 C 194.832031 199.75 202.53125 179.808594 202.53125 147.339844 C 202.53125 114.867188 194.832031 94.929688 189.3125 94.929688 Z M 189.3125 94.929688 " fill-opacity="1" fill-rule="nonzero"/></g><path fill="#ffffff" d="M 247.488281 158.617188 C 245.324219 161.011719 129.082031 161.355469 126.921875 158.617188 C 124.761719 155.878906 124.761719 136.023438 126.921875 133.285156 C 129.082031 130.542969 244.707031 131.230469 247.488281 133.285156 C 250.265625 135.335938 249.648438 156.21875 247.488281 158.617188 Z M 247.488281 158.617188 " fill-opacity="1" fill-rule="nonzero"/><path fill="#051d40" d="M 184.257812 161.804688 C 169.222656 161.804688 155.359375 161.640625 145.222656 161.335938 C 127.035156 160.796875 126.449219 160.054688 125.933594 159.398438 C 124.175781 157.175781 124.039062 148.542969 124.039062 145.949219 C 124.039062 143.359375 124.175781 134.726562 125.933594 132.503906 C 126.460938 131.835938 127.003906 131.144531 143.9375 130.644531 C 153.394531 130.363281 166.125 130.21875 180.75 130.21875 C 196.625 130.21875 212.890625 130.394531 225.382812 130.710938 C 246.847656 131.246094 247.71875 131.886719 248.234375 132.269531 C 248.96875 132.8125 249.871094 134.03125 250.335938 138.691406 C 251 145.289062 250.476562 157.183594 248.421875 159.460938 C 247.90625 160.03125 247.265625 160.746094 226.945312 161.304688 C 215.433594 161.625 199.875 161.804688 184.257812 161.804688 Z M 127.800781 157.660156 C 130.355469 158.453125 148.808594 159.285156 184.257812 159.285156 C 216.351562 159.285156 243.382812 158.558594 246.652344 157.621094 C 247.222656 156.578125 247.984375 152.222656 248.078125 145.929688 C 248.179688 139.074219 247.40625 135.121094 246.792969 134.355469 C 243.695312 133.476562 213.761719 132.738281 180.75 132.738281 C 147.339844 132.738281 130.257812 133.480469 127.800781 134.238281 C 127.253906 135.308594 126.558594 139.375 126.558594 145.949219 C 126.558594 152.527344 127.253906 156.589844 127.800781 157.660156 Z M 127.800781 157.660156 " fill-opacity="1" fill-rule="nonzero"/><path fill="#051d40" d="M 247.488281 133.285156 C 246.675781 132.683594 236.257812 132.203125 221.859375 131.886719 L 221.859375 160.171875 C 236.382812 159.847656 246.851562 159.320312 247.488281 158.617188 C 249.648438 156.21875 250.265625 135.335938 247.488281 133.285156 Z M 247.488281 133.285156 " fill-opacity="1" fill-rule="nonzero"/><path fill="#051d40" d="M 220.597656 161.460938 L 220.597656 130.597656 L 221.886719 130.625 C 246.75 131.171875 247.71875 131.886719 248.238281 132.269531 C 248.96875 132.8125 249.871094 134.03125 250.339844 138.691406 C 251 145.289062 250.476562 157.183594 248.421875 159.460938 C 247.886719 160.054688 247.152344 160.867188 221.886719 161.429688 Z M 223.121094 133.175781 L 223.121094 158.882812 C 241.863281 158.441406 245.828125 157.828125 246.65625 157.613281 C 247.222656 156.5625 247.984375 152.214844 248.078125 145.929688 C 248.179688 139.085938 247.40625 135.132812 246.792969 134.359375 C 246.117188 134.183594 242.460938 133.621094 223.121094 133.175781 Z M 223.121094 133.175781 " fill-opacity="1" fill-rule="nonzero"/><path fill="#051d40" d="M 147.207031 154.113281 C 146.695312 154.113281 146.230469 153.800781 146.039062 153.320312 L 142.957031 145.652344 L 139.550781 153.359375 C 139.347656 153.816406 138.894531 154.113281 138.398438 154.113281 C 138.394531 154.113281 138.390625 154.113281 138.386719 154.113281 C 137.882812 154.105469 137.429688 153.800781 137.234375 153.335938 L 132.46875 141.917969 C 132.199219 141.273438 132.503906 140.535156 133.144531 140.269531 C 133.785156 140 134.527344 140.304688 134.792969 140.945312 L 138.429688 149.660156 L 141.859375 141.902344 C 142.0625 141.445312 142.515625 141.148438 143.015625 141.148438 C 143.019531 141.148438 143.027344 141.148438 143.035156 141.148438 C 143.542969 141.160156 143.996094 141.472656 144.183594 141.941406 L 147.117188 149.242188 L 149.945312 141.019531 C 150.171875 140.363281 150.886719 140.011719 151.546875 140.238281 C 152.203125 140.464844 152.554688 141.183594 152.328125 141.839844 L 148.402344 153.261719 C 148.230469 153.757812 147.769531 154.097656 147.242188 154.113281 C 147.230469 154.113281 147.21875 154.113281 147.207031 154.113281 Z M 147.207031 154.113281 " fill-opacity="1" fill-rule="nonzero"/><path fill="#051d40" d="M 170.0625 154.113281 C 169.546875 154.113281 169.085938 153.800781 168.890625 153.320312 L 165.8125 145.652344 L 162.402344 153.359375 C 162.199219 153.820312 161.730469 154.097656 161.238281 154.113281 C 160.734375 154.105469 160.28125 153.800781 160.085938 153.335938 L 155.320312 141.917969 C 155.050781 141.273438 155.355469 140.535156 155.996094 140.269531 C 156.636719 140 157.378906 140.304688 157.644531 140.945312 L 161.285156 149.660156 L 164.714844 141.902344 C 164.914062 141.445312 165.367188 141.148438 165.867188 141.148438 C 165.875 141.148438 165.878906 141.148438 165.886719 141.148438 C 166.394531 141.160156 166.847656 141.472656 167.035156 141.941406 L 169.96875 149.242188 L 172.796875 141.019531 C 173.023438 140.363281 173.738281 140.011719 174.398438 140.238281 C 175.058594 140.464844 175.40625 141.183594 175.179688 141.839844 L 171.253906 153.261719 C 171.082031 153.757812 170.621094 154.097656 170.09375 154.113281 C 170.082031 154.113281 170.070312 154.113281 170.0625 154.113281 Z M 170.0625 154.113281 " fill-opacity="1" fill-rule="nonzero"/><path fill="#051d40" d="M 192.914062 154.113281 C 192.398438 154.113281 191.9375 153.800781 191.746094 153.320312 L 188.664062 145.652344 L 185.253906 153.359375 C 185.050781 153.820312 184.59375 154.097656 184.089844 154.113281 C 183.585938 154.105469 183.132812 153.800781 182.941406 153.335938 L 178.171875 141.917969 C 177.90625 141.273438 178.207031 140.535156 178.851562 140.269531 C 179.492188 140 180.230469 140.304688 180.5 140.945312 L 184.136719 149.660156 L 187.566406 141.902344 C 187.769531 141.445312 188.21875 141.148438 188.71875 141.148438 C 188.726562 141.148438 188.730469 141.148438 188.738281 141.148438 C 189.246094 141.160156 189.699219 141.472656 189.886719 141.941406 L 192.820312 149.242188 L 195.648438 141.019531 C 195.875 140.363281 196.589844 140.011719 197.25 140.238281 C 197.910156 140.464844 198.257812 141.183594 198.03125 141.839844 L 194.105469 153.261719 C 193.933594 153.757812 193.472656 154.097656 192.945312 154.113281 C 192.933594 154.113281 192.925781 154.113281 192.914062 154.113281 Z M 192.914062 154.113281 " fill-opacity="1" fill-rule="nonzero"/><path fill="#b1d4e0" d="M 236.457031 147.8125 C 233.167969 150.5625 228.257812 150.121094 225.511719 146.832031 C 222.761719 143.542969 223.199219 138.632812 226.488281 135.886719 C 229.777344 133.136719 234.691406 133.574219 237.4375 136.863281 C 240.183594 140.152344 239.746094 145.0625 236.457031 147.8125 Z M 228.105469 137.820312 C 225.882812 139.675781 225.585938 142.996094 227.445312 145.214844 C 229.300781 147.4375 232.621094 147.734375 234.839844 145.878906 C 237.0625 144.019531 237.359375 140.703125 235.503906 138.480469 C 233.644531 136.257812 230.328125 135.960938 228.105469 137.820312 Z M 228.105469 137.820312 " fill-opacity="1" fill-rule="nonzero"/><path fill="#b1d4e0" d="M 234.363281 147.925781 L 236.941406 145.769531 L 238.597656 147.753906 L 236.019531 149.90625 Z M 234.363281 147.925781 " fill-opacity="1" fill-rule="nonzero"/><path fill="#b1d4e0" d="M 243.367188 156.082031 C 242.835938 156.527344 242.039062 156.457031 241.59375 155.921875 L 237.550781 151.085938 C 237.105469 150.554688 237.175781 149.757812 237.710938 149.3125 C 238.246094 148.867188 239.039062 148.9375 239.484375 149.472656 L 243.527344 154.304688 C 243.972656 154.839844 243.902344 155.636719 243.367188 156.082031 Z M 243.367188 156.082031 " fill-opacity="1" fill-rule="nonzero"/><path fill="#b1d4e0" d="M 236.664062 149.363281 L 237.957031 148.285156 L 239.613281 150.269531 L 238.324219 151.347656 Z M 236.664062 149.363281 " fill-opacity="1" fill-rule="nonzero"/><g fill="#000000" fill-opacity="1"><g transform="translate(62.88792, 255.667294)"><g><path d="M 11.546875 0 L 3.703125 0 C 3.179688 0 2.921875 -0.257812 2.921875 -0.78125 L 2.921875 -28.671875 C 2.921875 -29.203125 3.179688 -29.46875 3.703125 -29.46875 L 11.546875 -29.46875 C 14.898438 -29.46875 17.734375 -28.882812 20.046875 -27.71875 C 22.367188 -26.5625 24.132812 -24.882812 25.34375 -22.6875 C 26.550781 -20.5 27.15625 -17.851562 27.15625 -14.75 C 27.15625 -11.675781 26.554688 -9.039062 25.359375 -6.84375 C 24.171875 -4.644531 22.414062 -2.953125 20.09375 -1.765625 C 17.769531 -0.585938 14.921875 0 11.546875 0 Z M 8.34375 -24.6875 L 8.34375 -4.78125 L 11.53125 -4.78125 C 13.695312 -4.78125 15.546875 -5.171875 17.078125 -5.953125 C 18.609375 -6.742188 19.769531 -7.882812 20.5625 -9.375 C 21.363281 -10.875 21.765625 -12.6875 21.765625 -14.8125 C 21.765625 -16.945312 21.363281 -18.742188 20.5625 -20.203125 C 19.769531 -21.671875 18.609375 -22.785156 17.078125 -23.546875 C 15.546875 -24.304688 13.695312 -24.6875 11.53125 -24.6875 Z M 8.34375 -24.6875 "/></g></g></g><g fill="#000000" fill-opacity="1"><g transform="translate(90.201074, 255.667294)"><g><path d="M 17.265625 0.6875 C 15.472656 0.6875 13.785156 0.445312 12.203125 -0.03125 C 10.628906 -0.507812 9.195312 -1.195312 7.90625 -2.09375 C 6.625 -2.988281 5.519531 -4.066406 4.59375 -5.328125 C 3.664062 -6.597656 2.945312 -8.019531 2.4375 -9.59375 C 1.9375 -11.175781 1.6875 -12.890625 1.6875 -14.734375 C 1.6875 -16.578125 1.9375 -18.285156 2.4375 -19.859375 C 2.945312 -21.441406 3.664062 -22.863281 4.59375 -24.125 C 5.519531 -25.394531 6.625 -26.476562 7.90625 -27.375 C 9.195312 -28.269531 10.628906 -28.957031 12.203125 -29.4375 C 13.785156 -29.914062 15.472656 -30.15625 17.265625 -30.15625 C 19.054688 -30.15625 20.742188 -29.914062 22.328125 -29.4375 C 23.910156 -28.957031 25.347656 -28.269531 26.640625 -27.375 C 27.929688 -26.476562 29.039062 -25.394531 29.96875 -24.125 C 30.894531 -22.863281 31.609375 -21.441406 32.109375 -19.859375 C 32.617188 -18.285156 32.875 -16.578125 32.875 -14.734375 C 32.875 -12.890625 32.617188 -11.175781 32.109375 -9.59375 C 31.609375 -8.019531 30.894531 -6.597656 29.96875 -5.328125 C 29.039062 -4.066406 27.929688 -2.988281 26.640625 -2.09375 C 25.347656 -1.195312 23.910156 -0.507812 22.328125 -0.03125 C 20.742188 0.445312 19.054688 0.6875 17.265625 0.6875 Z M 17.265625 -4.3125 C 18.703125 -4.3125 20.039062 -4.554688 21.28125 -5.046875 C 22.53125 -5.546875 23.617188 -6.253906 24.546875 -7.171875 C 25.472656 -8.085938 26.191406 -9.179688 26.703125 -10.453125 C 27.222656 -11.734375 27.484375 -13.160156 27.484375 -14.734375 C 27.484375 -16.304688 27.222656 -17.726562 26.703125 -19 C 26.191406 -20.269531 25.472656 -21.363281 24.546875 -22.28125 C 23.617188 -23.207031 22.53125 -23.914062 21.28125 -24.40625 C 20.039062 -24.894531 18.703125 -25.140625 17.265625 -25.140625 C 15.816406 -25.140625 14.472656 -24.894531 13.234375 -24.40625 C 12.003906 -23.914062 10.925781 -23.207031 10 -22.28125 C 9.082031 -21.363281 8.367188 -20.269531 7.859375 -19 C 7.347656 -17.726562 7.09375 -16.304688 7.09375 -14.734375 C 7.09375 -13.171875 7.347656 -11.75 7.859375 -10.46875 C 8.367188 -9.1875 9.082031 -8.085938 10 -7.171875 C 10.925781 -6.253906 12.003906 -5.546875 13.234375 -5.046875 C 14.472656 -4.554688 15.816406 -4.3125 17.265625 -4.3125 Z M 17.265625 -4.3125 "/></g></g></g><g fill="#000000" fill-opacity="1"><g transform="translate(123.191597, 255.667294)"><g><path d="M 7.46875 0 L 3.734375 0 C 3.210938 0 2.953125 -0.257812 2.953125 -0.78125 L 2.953125 -28.828125 C 2.953125 -29.328125 3.046875 -29.6875 3.234375 -29.90625 C 3.429688 -30.132812 3.679688 -30.21875 3.984375 -30.15625 C 4.285156 -30.09375 4.582031 -29.863281 4.875 -29.46875 L 17.171875 -13.15625 L 29.5 -29.46875 C 29.789062 -29.863281 30.082031 -30.09375 30.375 -30.15625 C 30.675781 -30.21875 30.925781 -30.132812 31.125 -29.90625 C 31.320312 -29.6875 31.421875 -29.328125 31.421875 -28.828125 L 31.421875 -0.78125 C 31.421875 -0.257812 31.15625 0 30.625 0 L 26.90625 0 C 26.382812 0 26.125 -0.257812 26.125 -0.78125 L 26.125 -16.453125 L 17.71875 -5.546875 C 17.550781 -5.316406 17.367188 -5.203125 17.171875 -5.203125 C 16.972656 -5.203125 16.785156 -5.316406 16.609375 -5.546875 L 8.25 -16.421875 L 8.25 -0.78125 C 8.25 -0.257812 7.988281 0 7.46875 0 Z M 7.46875 0 "/></g></g></g><g fill="#000000" fill-opacity="1"><g transform="translate(155.951955, 255.667294)"><g><path d="M 15.0625 -29.46875 L 27.765625 -0.921875 C 27.890625 -0.640625 27.894531 -0.414062 27.78125 -0.25 C 27.675781 -0.0820312 27.472656 0 27.171875 0 L 22.953125 0 C 22.503906 0 22.207031 -0.203125 22.0625 -0.609375 L 20.390625 -4.75 L 8.015625 -4.75 L 6.34375 -0.609375 C 6.195312 -0.203125 5.898438 0 5.453125 0 L 1.203125 0 C 0.921875 0 0.722656 -0.0820312 0.609375 -0.25 C 0.492188 -0.414062 0.503906 -0.640625 0.640625 -0.921875 L 13.328125 -29.46875 C 13.554688 -29.957031 13.847656 -30.203125 14.203125 -30.203125 C 14.554688 -30.203125 14.84375 -29.957031 15.0625 -29.46875 Z M 14.21875 -20.078125 L 9.765625 -9.078125 L 18.640625 -9.078125 Z M 14.21875 -20.078125 "/></g></g></g><g fill="#000000" fill-opacity="1"><g transform="translate(182.766422, 255.667294)"><g><path d="M 7.515625 0 L 3.703125 0 C 3.179688 0 2.921875 -0.257812 2.921875 -0.78125 L 2.921875 -28.671875 C 2.921875 -29.203125 3.179688 -29.46875 3.703125 -29.46875 L 7.515625 -29.46875 C 8.046875 -29.46875 8.3125 -29.203125 8.3125 -28.671875 L 8.3125 -0.78125 C 8.3125 -0.257812 8.046875 0 7.515625 0 Z M 7.515625 0 "/></g></g></g><g fill="#000000" fill-opacity="1"><g transform="translate(192.376163, 255.667294)"><g><path d="M 7.421875 0 L 3.734375 0 C 3.210938 0 2.953125 -0.257812 2.953125 -0.78125 L 2.953125 -28.796875 C 2.953125 -29.492188 3.144531 -29.921875 3.53125 -30.078125 C 3.925781 -30.234375 4.375 -30.0625 4.875 -29.5625 L 21.671875 -12.109375 L 21.671875 -28.671875 C 21.671875 -29.203125 21.929688 -29.46875 22.453125 -29.46875 L 26.15625 -29.46875 C 26.6875 -29.46875 26.953125 -29.203125 26.953125 -28.671875 L 26.953125 -0.6875 C 26.953125 0.0078125 26.742188 0.425781 26.328125 0.5625 C 25.921875 0.707031 25.453125 0.519531 24.921875 0 L 8.203125 -17.8125 L 8.203125 -0.78125 C 8.203125 -0.257812 7.941406 0 7.421875 0 Z M 7.421875 0 "/></g></g></g><g fill="#000000" fill-opacity="1"><g transform="translate(220.686692, 255.667294)"><g><path d="M 19.5 -10.609375 L 24.59375 -0.9375 C 24.726562 -0.65625 24.738281 -0.425781 24.625 -0.25 C 24.507812 -0.0820312 24.304688 0 24.015625 0 L 19.625 0 C 19.207031 0 18.90625 -0.195312 18.71875 -0.59375 L 14.21875 -9.546875 L 8.3125 -9.546875 L 8.3125 -0.78125 C 8.3125 -0.257812 8.046875 0 7.515625 0 L 3.703125 0 C 3.179688 0 2.921875 -0.257812 2.921875 -0.78125 L 2.921875 -28.671875 C 2.921875 -29.203125 3.179688 -29.46875 3.703125 -29.46875 L 13.25 -29.46875 C 15.28125 -29.46875 17.003906 -29.234375 18.421875 -28.765625 C 19.847656 -28.296875 21 -27.628906 21.875 -26.765625 C 22.757812 -25.898438 23.40625 -24.863281 23.8125 -23.65625 C 24.21875 -22.445312 24.421875 -21.101562 24.421875 -19.625 C 24.421875 -17.40625 24.003906 -15.535156 23.171875 -14.015625 C 22.335938 -12.492188 21.113281 -11.359375 19.5 -10.609375 Z M 8.3125 -24.6875 L 8.3125 -14.3125 L 12.5625 -14.3125 C 12.9375 -14.3125 13.394531 -14.328125 13.9375 -14.359375 C 14.488281 -14.398438 15.0625 -14.5 15.65625 -14.65625 C 16.25 -14.820312 16.800781 -15.09375 17.3125 -15.46875 C 17.832031 -15.84375 18.253906 -16.359375 18.578125 -17.015625 C 18.898438 -17.679688 19.0625 -18.535156 19.0625 -19.578125 C 19.0625 -20.585938 18.90625 -21.414062 18.59375 -22.0625 C 18.289062 -22.707031 17.882812 -23.207031 17.375 -23.5625 C 16.875 -23.925781 16.332031 -24.1875 15.75 -24.34375 C 15.175781 -24.507812 14.609375 -24.609375 14.046875 -24.640625 C 13.484375 -24.671875 12.988281 -24.6875 12.5625 -24.6875 Z M 8.3125 -24.6875 "/></g></g></g><g fill="#000000" fill-opacity="1"><g transform="translate(245.755752, 255.667294)"><g><path d="M 15.0625 -29.46875 L 27.765625 -0.921875 C 27.890625 -0.640625 27.894531 -0.414062 27.78125 -0.25 C 27.675781 -0.0820312 27.472656 0 27.171875 0 L 22.953125 0 C 22.503906 0 22.207031 -0.203125 22.0625 -0.609375 L 20.390625 -4.75 L 8.015625 -4.75 L 6.34375 -0.609375 C 6.195312 -0.203125 5.898438 0 5.453125 0 L 1.203125 0 C 0.921875 0 0.722656 -0.0820312 0.609375 -0.25 C 0.492188 -0.414062 0.503906 -0.640625 0.640625 -0.921875 L 13.328125 -29.46875 C 13.554688 -29.957031 13.847656 -30.203125 14.203125 -30.203125 C 14.554688 -30.203125 14.84375 -29.957031 15.0625 -29.46875 Z M 14.21875 -20.078125 L 9.765625 -9.078125 L 18.640625 -9.078125 Z M 14.21875 -20.078125 "/></g></g></g><g fill="#000000" fill-opacity="1"><g transform="translate(272.570219, 255.667294)"><g><path d="M 7.515625 0 L 3.703125 0 C 3.179688 0 2.921875 -0.257812 2.921875 -0.78125 L 2.921875 -28.671875 C 2.921875 -29.203125 3.179688 -29.46875 3.703125 -29.46875 L 7.515625 -29.46875 C 8.046875 -29.46875 8.3125 -29.203125 8.3125 -28.671875 L 8.3125 -0.78125 C 8.3125 -0.257812 8.046875 0 7.515625 0 Z M 7.515625 0 "/></g></g></g><g fill="#000000" fill-opacity="1"><g transform="translate(282.179959, 255.667294)"><g><path d="M 7.421875 0 L 3.734375 0 C 3.210938 0 2.953125 -0.257812 2.953125 -0.78125 L 2.953125 -28.796875 C 2.953125 -29.492188 3.144531 -29.921875 3.53125 -30.078125 C 3.925781 -30.234375 4.375 -30.0625 4.875 -29.5625 L 21.671875 -12.109375 L 21.671875 -28.671875 C 21.671875 -29.203125 21.929688 -29.46875 22.453125 -29.46875 L 26.15625 -29.46875 C 26.6875 -29.46875 26.953125 -29.203125 26.953125 -28.671875 L 26.953125 -0.6875 C 26.953125 0.0078125 26.742188 0.425781 26.328125 0.5625 C 25.921875 0.707031 25.453125 0.519531 24.921875 0 L 8.203125 -17.8125 L 8.203125 -0.78125 C 8.203125 -0.257812 7.941406 0 7.421875 0 Z M 7.421875 0 "/></g></g></g></svg>