<svg xmlns="http://www.w3.org/2000/svg" xmlns:xlink="http://www.w3.org/1999/xlink" width="500" zoomAndPan="magnify" viewBox="0 0 375 374.999991" height="500" preserveAspectRatio="xMidYMid meet" version="1.0"><defs><g/><clipPath id="b16f803d49"><path d="M 66.394531 156.007812 L 108 156.007812 L 108 219 L 66.394531 219 Z M 66.394531 156.007812 " clip-rule="nonzero"/></clipPath><clipPath id="76273850c9"><path d="M 66.394531 156.007812 L 108 156.007812 L 108 204 L 66.394531 204 Z M 66.394531 156.007812 " clip-rule="nonzero"/></clipPath><clipPath id="e58cff675e"><path d="M 121 156.007812 L 133.894531 156.007812 L 133.894531 169 L 121 169 Z M 121 156.007812 " clip-rule="nonzero"/></clipPath><clipPath id="4f611cc7ae"><path d="M 92 156.007812 L 133.894531 156.007812 L 133.894531 219 L 92 219 Z M 92 156.007812 " clip-rule="nonzero"/></clipPath><clipPath id="84069705bc"><path d="M 92 156.007812 L 133.894531 156.007812 L 133.894531 204 L 92 204 Z M 92 156.007812 " clip-rule="nonzero"/></clipPath></defs><g clip-path="url(#b16f803d49)"><path fill="#72ffff" d="M 82.515625 159.164062 L 104.304688 180.949219 C 104.742188 181.386719 105.132812 181.867188 105.476562 182.382812 C 105.824219 182.898438 106.113281 183.441406 106.351562 184.015625 C 106.589844 184.585938 106.765625 185.175781 106.886719 185.785156 C 107.007812 186.394531 107.070312 187.007812 107.070312 187.628906 C 107.070312 188.25 107.007812 188.863281 106.886719 189.472656 C 106.765625 190.078125 106.589844 190.671875 106.351562 191.242188 C 106.113281 191.816406 105.824219 192.359375 105.476562 192.875 C 105.132812 193.390625 104.742188 193.867188 104.304688 194.308594 L 82.515625 216.09375 C 76.566406 222.042969 66.390625 217.828125 66.394531 209.410156 L 66.394531 165.835938 C 66.390625 157.429688 76.566406 153.210938 82.515625 159.164062 Z M 82.515625 159.164062 " fill-opacity="1" fill-rule="nonzero"/></g><g clip-path="url(#76273850c9)"><path fill="#00d7ff" d="M 82.515625 159.164062 C 76.601562 153.246094 66.539062 157.382812 66.398438 165.695312 C 66.398438 165.695312 100.683594 198.132812 95.230469 203.417969 L 104.324219 194.328125 C 104.761719 193.886719 105.152344 193.410156 105.496094 192.894531 C 105.84375 192.378906 106.132812 191.835938 106.371094 191.261719 C 106.605469 190.691406 106.785156 190.097656 106.90625 189.492188 C 107.027344 188.882812 107.089844 188.269531 107.089844 187.648438 C 107.089844 187.027344 107.027344 186.414062 106.90625 185.804688 C 106.785156 185.195312 106.605469 184.605469 106.371094 184.035156 C 106.132812 183.460938 105.84375 182.917969 105.496094 182.402344 C 105.152344 181.886719 104.761719 181.40625 104.324219 180.96875 Z M 82.515625 159.164062 " fill-opacity="1" fill-rule="nonzero"/></g><g clip-path="url(#e58cff675e)"><path fill="#590696" d="M 134.175781 162.25 C 134.175781 162.65625 134.136719 163.058594 134.058594 163.457031 C 133.976562 163.855469 133.859375 164.238281 133.707031 164.613281 C 133.550781 164.988281 133.359375 165.34375 133.136719 165.679688 C 132.910156 166.019531 132.652344 166.332031 132.367188 166.617188 C 132.082031 166.902344 131.769531 167.160156 131.433594 167.382812 C 131.09375 167.609375 130.738281 167.800781 130.363281 167.953125 C 129.992188 168.109375 129.605469 168.226562 129.207031 168.304688 C 128.808594 168.386719 128.40625 168.425781 128.003906 168.425781 C 127.597656 168.425781 127.195312 168.386719 126.796875 168.304688 C 126.402344 168.226562 126.015625 168.109375 125.640625 167.953125 C 125.265625 167.800781 124.910156 167.609375 124.574219 167.382812 C 124.234375 167.160156 123.925781 166.902344 123.636719 166.617188 C 123.351562 166.332031 123.09375 166.019531 122.871094 165.679688 C 122.644531 165.34375 122.453125 164.988281 122.300781 164.613281 C 122.144531 164.238281 122.027344 163.855469 121.949219 163.457031 C 121.871094 163.058594 121.828125 162.65625 121.828125 162.25 C 121.828125 161.847656 121.871094 161.445312 121.949219 161.046875 C 122.027344 160.648438 122.144531 160.265625 122.300781 159.890625 C 122.453125 159.515625 122.644531 159.160156 122.871094 158.824219 C 123.09375 158.484375 123.351562 158.171875 123.636719 157.886719 C 123.925781 157.601562 124.234375 157.34375 124.574219 157.121094 C 124.910156 156.894531 125.265625 156.703125 125.640625 156.546875 C 126.015625 156.394531 126.402344 156.277344 126.796875 156.199219 C 127.195312 156.117188 127.597656 156.078125 128.003906 156.078125 C 128.40625 156.078125 128.808594 156.117188 129.207031 156.199219 C 129.605469 156.277344 129.992188 156.394531 130.363281 156.546875 C 130.738281 156.703125 131.09375 156.894531 131.433594 157.121094 C 131.769531 157.34375 132.082031 157.601562 132.367188 157.886719 C 132.652344 158.171875 132.910156 158.484375 133.136719 158.824219 C 133.359375 159.160156 133.550781 159.515625 133.707031 159.890625 C 133.859375 160.265625 133.976562 160.648438 134.058594 161.046875 C 134.136719 161.445312 134.175781 161.847656 134.175781 162.25 Z M 134.175781 162.25 " fill-opacity="1" fill-rule="nonzero"/><path fill="#590696" d="M 134.175781 162.25 C 134.175781 162.65625 134.136719 163.058594 134.058594 163.457031 C 133.976562 163.855469 133.859375 164.238281 133.707031 164.613281 C 133.550781 164.988281 133.359375 165.34375 133.136719 165.679688 C 132.910156 166.019531 132.652344 166.332031 132.367188 166.617188 C 132.082031 166.902344 131.769531 167.160156 131.433594 167.382812 C 131.09375 167.609375 130.738281 167.800781 130.363281 167.953125 C 129.992188 168.109375 129.605469 168.226562 129.207031 168.304688 C 128.808594 168.386719 128.40625 168.425781 128.003906 168.425781 C 127.597656 168.425781 127.195312 168.386719 126.796875 168.304688 C 126.402344 168.226562 126.015625 168.109375 125.640625 167.953125 C 125.265625 167.800781 124.910156 167.609375 124.574219 167.382812 C 124.234375 167.160156 123.925781 166.902344 123.636719 166.617188 C 123.351562 166.332031 123.09375 166.019531 122.871094 165.679688 C 122.644531 165.34375 122.453125 164.988281 122.300781 164.613281 C 122.144531 164.238281 122.027344 163.855469 121.949219 163.457031 C 121.871094 163.058594 121.828125 162.65625 121.828125 162.25 C 121.828125 161.847656 121.871094 161.445312 121.949219 161.046875 C 122.027344 160.648438 122.144531 160.265625 122.300781 159.890625 C 122.453125 159.515625 122.644531 159.160156 122.871094 158.824219 C 123.09375 158.484375 123.351562 158.171875 123.636719 157.886719 C 123.925781 157.601562 124.234375 157.34375 124.574219 157.121094 C 124.910156 156.894531 125.265625 156.703125 125.640625 156.546875 C 126.015625 156.394531 126.402344 156.277344 126.796875 156.199219 C 127.195312 156.117188 127.597656 156.078125 128.003906 156.078125 C 128.40625 156.078125 128.808594 156.117188 129.207031 156.199219 C 129.605469 156.277344 129.992188 156.394531 130.363281 156.546875 C 130.738281 156.703125 131.09375 156.894531 131.433594 157.121094 C 131.769531 157.34375 132.082031 157.601562 132.367188 157.886719 C 132.652344 158.171875 132.910156 158.484375 133.136719 158.824219 C 133.359375 159.160156 133.550781 159.515625 133.707031 159.890625 C 133.859375 160.265625 133.976562 160.648438 134.058594 161.046875 C 134.136719 161.445312 134.175781 161.847656 134.175781 162.25 Z M 134.175781 162.25 " fill-opacity="1" fill-rule="nonzero"/></g><g clip-path="url(#4f611cc7ae)"><path fill="#0096ff" d="M 131.40625 181.003906 L 109.621094 159.214844 C 103.769531 153.363281 88.179688 160.152344 93.515625 165.484375 L 109.183594 181.15625 C 109.621094 181.597656 110.015625 182.074219 110.359375 182.589844 C 110.703125 183.105469 110.996094 183.648438 111.230469 184.21875 C 111.46875 184.792969 111.648438 185.382812 111.769531 185.992188 C 111.890625 186.601562 111.953125 187.214844 111.953125 187.835938 C 111.953125 188.453125 111.890625 189.070312 111.769531 189.675781 C 111.648438 190.285156 111.46875 190.875 111.230469 191.449219 C 110.996094 192.019531 110.703125 192.566406 110.359375 193.082031 C 110.015625 193.597656 109.621094 194.074219 109.183594 194.511719 L 93.527344 210.171875 C 88.753906 214.941406 103.828125 221.976562 109.621094 216.1875 L 131.40625 194.398438 C 131.847656 193.960938 132.242188 193.484375 132.589844 192.964844 C 132.9375 192.449219 133.230469 191.902344 133.46875 191.328125 C 133.707031 190.753906 133.886719 190.160156 134.007812 189.550781 C 134.132812 188.941406 134.191406 188.324219 134.191406 187.703125 C 134.191406 187.078125 134.132812 186.460938 134.007812 185.851562 C 133.886719 185.242188 133.707031 184.648438 133.46875 184.074219 C 133.230469 183.5 132.9375 182.953125 132.589844 182.4375 C 132.242188 181.917969 131.847656 181.441406 131.40625 181.003906 Z M 131.40625 181.003906 " fill-opacity="1" fill-rule="nonzero"/></g><g clip-path="url(#84069705bc)"><path fill="#5800ff" d="M 131.40625 181.003906 L 109.621094 159.214844 C 103.769531 153.363281 88.179688 160.152344 93.515625 165.484375 L 109.183594 181.15625 C 109.941406 181.914062 110.550781 182.773438 111.011719 183.734375 C 111.476562 184.699219 111.765625 185.710938 111.886719 186.773438 C 117.285156 193.113281 121.773438 199.265625 122.707031 203.101562 L 131.421875 194.386719 C 131.859375 193.945312 132.253906 193.46875 132.597656 192.949219 C 132.945312 192.433594 133.234375 191.886719 133.472656 191.3125 C 133.710938 190.738281 133.890625 190.148438 134.011719 189.539062 C 134.132812 188.929688 134.191406 188.3125 134.191406 187.691406 C 134.191406 187.070312 134.128906 186.453125 134.007812 185.84375 C 133.886719 185.234375 133.703125 184.644531 133.464844 184.070312 C 133.226562 183.496094 132.933594 182.949219 132.585938 182.433594 C 132.242188 181.917969 131.847656 181.441406 131.40625 181.003906 Z M 131.40625 181.003906 " fill-opacity="1" fill-rule="nonzero"/></g><g fill="#ffffff" fill-opacity="1"><g transform="translate(147.267271, 202.747837)"><g><path d="M 14.9375 0 L 3.515625 0 L 3.515625 -29.5 L 14.875 -29.5 C 17.238281 -29.5 19.378906 -29.144531 21.296875 -28.4375 C 23.222656 -27.738281 24.875 -26.738281 26.25 -25.4375 C 27.632812 -24.132812 28.695312 -22.582031 29.4375 -20.78125 C 30.1875 -18.988281 30.5625 -16.984375 30.5625 -14.765625 C 30.5625 -12.554688 30.1875 -10.546875 29.4375 -8.734375 C 28.695312 -6.921875 27.640625 -5.363281 26.265625 -4.0625 C 24.890625 -2.757812 23.242188 -1.753906 21.328125 -1.046875 C 19.410156 -0.347656 17.28125 0 14.9375 0 Z M 8.828125 -24.703125 L 8.828125 -4.8125 L 14.765625 -4.8125 C 16.921875 -4.8125 18.769531 -5.210938 20.3125 -6.015625 C 21.863281 -6.816406 23.050781 -7.953125 23.875 -9.421875 C 24.707031 -10.898438 25.125 -12.65625 25.125 -14.6875 C 25.125 -16.695312 24.71875 -18.453125 23.90625 -19.953125 C 23.09375 -21.460938 21.910156 -22.628906 20.359375 -23.453125 C 18.816406 -24.285156 16.941406 -24.703125 14.734375 -24.703125 Z M 8.828125 -24.703125 "/></g></g></g><g fill="#ffffff" fill-opacity="1"><g transform="translate(179.276622, 202.747837)"><g><path d="M 13.203125 0.671875 C 11.515625 0.671875 9.953125 0.367188 8.515625 -0.234375 C 7.085938 -0.847656 5.847656 -1.695312 4.796875 -2.78125 C 3.753906 -3.863281 2.941406 -5.117188 2.359375 -6.546875 C 1.785156 -7.984375 1.5 -9.519531 1.5 -11.15625 C 1.5 -12.78125 1.785156 -14.304688 2.359375 -15.734375 C 2.941406 -17.160156 3.753906 -18.414062 4.796875 -19.5 C 5.847656 -20.582031 7.085938 -21.429688 8.515625 -22.046875 C 9.953125 -22.660156 11.523438 -22.96875 13.234375 -22.96875 C 14.953125 -22.96875 16.523438 -22.660156 17.953125 -22.046875 C 19.390625 -21.429688 20.632812 -20.582031 21.6875 -19.5 C 22.75 -18.414062 23.566406 -17.160156 24.140625 -15.734375 C 24.722656 -14.304688 25.015625 -12.78125 25.015625 -11.15625 C 25.015625 -9.5 24.722656 -7.957031 24.140625 -6.53125 C 23.566406 -5.113281 22.75 -3.863281 21.6875 -2.78125 C 20.632812 -1.695312 19.390625 -0.847656 17.953125 -0.234375 C 16.515625 0.367188 14.929688 0.671875 13.203125 0.671875 Z M 13.25 -4.203125 C 14.507812 -4.203125 15.628906 -4.503906 16.609375 -5.109375 C 17.597656 -5.710938 18.375 -6.53125 18.9375 -7.5625 C 19.507812 -8.601562 19.796875 -9.800781 19.796875 -11.15625 C 19.796875 -12.5 19.507812 -13.691406 18.9375 -14.734375 C 18.375 -15.785156 17.597656 -16.609375 16.609375 -17.203125 C 15.628906 -17.804688 14.507812 -18.109375 13.25 -18.109375 C 12.007812 -18.109375 10.894531 -17.804688 9.90625 -17.203125 C 8.914062 -16.609375 8.132812 -15.785156 7.5625 -14.734375 C 6.988281 -13.691406 6.703125 -12.5 6.703125 -11.15625 C 6.703125 -9.800781 6.988281 -8.601562 7.5625 -7.5625 C 8.132812 -6.53125 8.914062 -5.710938 9.90625 -5.109375 C 10.894531 -4.503906 12.007812 -4.203125 13.25 -4.203125 Z M 13.25 -4.203125 "/></g></g></g><g fill="#ffffff" fill-opacity="1"><g transform="translate(205.777589, 202.747837)"><g><path d="M 13.015625 0.671875 C 11.347656 0.671875 9.8125 0.363281 8.40625 -0.25 C 7.007812 -0.863281 5.789062 -1.710938 4.75 -2.796875 C 3.71875 -3.878906 2.914062 -5.132812 2.34375 -6.5625 C 1.78125 -8 1.5 -9.53125 1.5 -11.15625 C 1.5 -12.769531 1.78125 -14.285156 2.34375 -15.703125 C 2.914062 -17.128906 3.71875 -18.390625 4.75 -19.484375 C 5.789062 -20.578125 7.007812 -21.429688 8.40625 -22.046875 C 9.8125 -22.660156 11.347656 -22.96875 13.015625 -22.96875 C 14.941406 -22.96875 16.660156 -22.59375 18.171875 -21.84375 C 19.679688 -21.101562 20.941406 -20.085938 21.953125 -18.796875 C 22.972656 -17.515625 23.695312 -16.054688 24.125 -14.421875 L 18.765625 -14.421875 C 18.273438 -15.671875 17.515625 -16.59375 16.484375 -17.1875 C 15.453125 -17.789062 14.300781 -18.09375 13.03125 -18.09375 C 12.226562 -18.09375 11.445312 -17.9375 10.6875 -17.625 C 9.9375 -17.3125 9.257812 -16.859375 8.65625 -16.265625 C 8.0625 -15.671875 7.585938 -14.941406 7.234375 -14.078125 C 6.878906 -13.222656 6.703125 -12.25 6.703125 -11.15625 C 6.703125 -10.050781 6.878906 -9.066406 7.234375 -8.203125 C 7.585938 -7.347656 8.0625 -6.617188 8.65625 -6.015625 C 9.257812 -5.421875 9.941406 -4.96875 10.703125 -4.65625 C 11.460938 -4.34375 12.238281 -4.1875 13.03125 -4.1875 C 14.300781 -4.1875 15.453125 -4.5 16.484375 -5.125 C 17.515625 -5.757812 18.273438 -6.769531 18.765625 -8.15625 L 24.09375 -8.15625 C 23.71875 -6.4375 23.015625 -4.910156 21.984375 -3.578125 C 20.960938 -2.242188 19.6875 -1.203125 18.15625 -0.453125 C 16.632812 0.296875 14.921875 0.671875 13.015625 0.671875 Z M 13.015625 0.671875 "/></g></g></g><g fill="#ffffff" fill-opacity="1"><g transform="translate(231.042423, 202.747837)"><g><path d="M 15.59375 0.65625 C 13.8125 0.65625 12.15625 0.375 10.625 -0.1875 C 9.101562 -0.757812 7.769531 -1.566406 6.625 -2.609375 C 5.476562 -3.660156 4.585938 -4.929688 3.953125 -6.421875 C 3.316406 -7.910156 3 -9.570312 3 -11.40625 L 3 -29.5 L 8.375 -29.5 L 8.375 -11.796875 C 8.375 -10.410156 8.648438 -9.148438 9.203125 -8.015625 C 9.765625 -6.878906 10.582031 -5.972656 11.65625 -5.296875 C 12.738281 -4.628906 14.050781 -4.296875 15.59375 -4.296875 C 17.113281 -4.296875 18.40625 -4.628906 19.46875 -5.296875 C 20.539062 -5.960938 21.363281 -6.863281 21.9375 -8 C 22.507812 -9.132812 22.796875 -10.394531 22.796875 -11.78125 L 22.796875 -29.5 L 28.203125 -29.5 L 28.203125 -11.40625 C 28.203125 -9.644531 27.894531 -8.03125 27.28125 -6.5625 C 26.675781 -5.09375 25.816406 -3.816406 24.703125 -2.734375 C 23.585938 -1.660156 22.253906 -0.828125 20.703125 -0.234375 C 19.160156 0.359375 17.457031 0.65625 15.59375 0.65625 Z M 15.59375 0.65625 "/></g></g></g><g fill="#ffffff" fill-opacity="1"><g transform="translate(262.205999, 202.747837)"><g><path d="M 8.328125 0 L 3.078125 0 L 3.078125 -22.296875 L 8.0625 -22.296875 L 8.0625 -18.828125 C 8.5 -19.640625 9.09375 -20.351562 9.84375 -20.96875 C 10.59375 -21.59375 11.46875 -22.082031 12.46875 -22.4375 C 13.46875 -22.789062 14.539062 -22.96875 15.6875 -22.96875 C 18.675781 -22.96875 20.914062 -22.015625 22.40625 -20.109375 C 23.894531 -18.210938 24.640625 -15.515625 24.640625 -12.015625 L 24.640625 0 L 19.390625 0 L 19.390625 -11.90625 C 19.390625 -14.125 18.925781 -15.71875 18 -16.6875 C 17.070312 -17.65625 15.816406 -18.140625 14.234375 -18.140625 C 13.203125 -18.140625 12.238281 -17.878906 11.34375 -17.359375 C 10.445312 -16.835938 9.71875 -16.078125 9.15625 -15.078125 C 8.601562 -14.078125 8.328125 -12.847656 8.328125 -11.390625 Z M 8.328125 0 "/></g></g></g><g fill="#ffffff" fill-opacity="1"><g transform="translate(289.74792, 202.747837)"><g><path d="M 5.65625 -25.765625 C 4.644531 -25.765625 3.851562 -26.054688 3.28125 -26.640625 C 2.707031 -27.234375 2.421875 -27.945312 2.421875 -28.78125 C 2.421875 -29.59375 2.707031 -30.296875 3.28125 -30.890625 C 3.851562 -31.484375 4.65625 -31.78125 5.6875 -31.78125 C 6.738281 -31.78125 7.550781 -31.484375 8.125 -30.890625 C 8.695312 -30.296875 8.984375 -29.59375 8.984375 -28.78125 C 8.984375 -27.945312 8.695312 -27.234375 8.125 -26.640625 C 7.550781 -26.054688 6.726562 -25.765625 5.65625 -25.765625 Z M 8.328125 0 L 3.078125 0 L 3.078125 -22.296875 L 8.328125 -22.296875 Z M 8.328125 0 "/></g></g></g><g fill="#ffffff" fill-opacity="1"><g transform="translate(301.133361, 202.747837)"><g><path d="M 16.78125 0 L 12.25 0 C 11.582031 0 10.898438 -0.0625 10.203125 -0.1875 C 9.503906 -0.3125 8.835938 -0.535156 8.203125 -0.859375 C 7.566406 -1.191406 7 -1.671875 6.5 -2.296875 C 6 -2.929688 5.597656 -3.75 5.296875 -4.75 C 5.003906 -5.757812 4.859375 -7.003906 4.859375 -8.484375 L 4.859375 -17.78125 L 0.234375 -17.78125 L 0.234375 -22.296875 L 4.859375 -22.296875 L 4.859375 -28.828125 L 10.109375 -28.875 L 10.109375 -22.296875 L 16.78125 -22.296875 L 16.78125 -17.78125 L 10.109375 -17.78125 L 10.109375 -8.25 C 10.109375 -7.207031 10.257812 -6.398438 10.5625 -5.828125 C 10.863281 -5.265625 11.265625 -4.878906 11.765625 -4.671875 C 12.265625 -4.460938 12.789062 -4.359375 13.34375 -4.359375 L 16.78125 -4.359375 Z M 16.78125 0 "/></g></g></g><g fill="#ffffff" fill-opacity="1"><g transform="translate(319.089826, 202.747837)"><g><path d="M 4.8125 7.609375 L 1.0625 7.609375 L 1.0625 3.28125 L 4.765625 3.28125 C 5.546875 3.28125 6.1875 3.148438 6.6875 2.890625 C 7.1875 2.640625 7.609375 2.253906 7.953125 1.734375 C 8.304688 1.210938 8.632812 0.539062 8.9375 -0.28125 L 9.203125 -1.046875 L 0.65625 -22.296875 L 6.1875 -22.296875 L 11.4375 -8.8125 L 12 -6.5 L 12.578125 -8.78125 L 17.75 -22.28125 L 23.34375 -22.296875 L 14.640625 -0.5 C 13.992188 1.164062 13.34375 2.53125 12.6875 3.59375 C 12.039062 4.65625 11.34375 5.476562 10.59375 6.0625 C 9.851562 6.644531 9.015625 7.046875 8.078125 7.265625 C 7.148438 7.492188 6.0625 7.609375 4.8125 7.609375 Z M 4.8125 7.609375 "/></g></g></g></svg>