<svg xmlns="http://www.w3.org/2000/svg" xmlns:xlink="http://www.w3.org/1999/xlink" width="500" zoomAndPan="magnify" viewBox="0 0 375 374.999991" height="500" preserveAspectRatio="xMidYMid meet" version="1.0"><defs><g/><clipPath id="61dbcf4025"><path d="M 11.804688 148 L 63 148 L 63 227 L 11.804688 227 Z M 11.804688 148 " clip-rule="nonzero"/></clipPath><clipPath id="f049dc18e5"><path d="M 11.804688 148 L 63 148 L 63 208 L 11.804688 208 Z M 11.804688 148 " clip-rule="nonzero"/></clipPath><clipPath id="70d8b69347"><path d="M 81 147.886719 L 97.304688 147.886719 L 97.304688 164 L 81 164 Z M 81 147.886719 " clip-rule="nonzero"/></clipPath><clipPath id="fe077f9d33"><path d="M 44 149 L 97.304688 149 L 97.304688 227 L 44 227 Z M 44 149 " clip-rule="nonzero"/></clipPath><clipPath id="4b5c726eac"><path d="M 44 149 L 97.304688 149 L 97.304688 208 L 44 208 Z M 44 149 " clip-rule="nonzero"/></clipPath></defs><g clip-path="url(#61dbcf4025)"><path fill="#72ffff" d="M 32.085938 151.855469 L 59.492188 179.261719 C 60.042969 179.8125 60.535156 180.414062 60.96875 181.0625 C 61.402344 181.710938 61.769531 182.394531 62.066406 183.117188 C 62.363281 183.835938 62.589844 184.578125 62.742188 185.34375 C 62.894531 186.109375 62.972656 186.882812 62.972656 187.664062 C 62.972656 188.441406 62.894531 189.214844 62.742188 189.980469 C 62.589844 190.746094 62.363281 191.488281 62.066406 192.210938 C 61.769531 192.929688 61.402344 193.617188 60.96875 194.265625 C 60.535156 194.914062 60.042969 195.511719 59.492188 196.066406 L 32.085938 223.472656 C 24.597656 230.957031 11.796875 225.652344 11.804688 215.0625 L 11.804688 160.246094 C 11.796875 149.675781 24.597656 144.371094 32.085938 151.855469 Z M 32.085938 151.855469 " fill-opacity="1" fill-rule="nonzero"/></g><g clip-path="url(#f049dc18e5)"><path fill="#00d7ff" d="M 32.085938 151.855469 C 24.640625 144.410156 11.984375 149.613281 11.808594 160.070312 C 11.808594 160.070312 54.933594 200.875 48.078125 207.527344 L 59.515625 196.089844 C 60.066406 195.539062 60.558594 194.9375 60.992188 194.289062 C 61.425781 193.640625 61.792969 192.953125 62.089844 192.234375 C 62.390625 191.511719 62.613281 190.769531 62.765625 190.003906 C 62.917969 189.238281 62.996094 188.46875 62.996094 187.6875 C 62.996094 186.90625 62.917969 186.132812 62.765625 185.371094 C 62.613281 184.605469 62.390625 183.859375 62.089844 183.140625 C 61.792969 182.417969 61.425781 181.734375 60.992188 181.085938 C 60.558594 180.4375 60.066406 179.835938 59.515625 179.285156 Z M 32.085938 151.855469 " fill-opacity="1" fill-rule="nonzero"/></g><g clip-path="url(#70d8b69347)"><path fill="#590696" d="M 97.070312 155.738281 C 97.070312 156.25 97.019531 156.753906 96.917969 157.253906 C 96.820312 157.753906 96.671875 158.242188 96.476562 158.710938 C 96.28125 159.183594 96.042969 159.628906 95.761719 160.054688 C 95.476562 160.476562 95.15625 160.871094 94.792969 161.230469 C 94.433594 161.589844 94.042969 161.914062 93.617188 162.195312 C 93.195312 162.480469 92.746094 162.71875 92.273438 162.914062 C 91.804688 163.109375 91.320312 163.257812 90.820312 163.355469 C 90.320312 163.457031 89.8125 163.503906 89.304688 163.503906 C 88.792969 163.503906 88.289062 163.457031 87.789062 163.355469 C 87.289062 163.257812 86.804688 163.109375 86.332031 162.914062 C 85.859375 162.71875 85.414062 162.480469 84.988281 162.195312 C 84.566406 161.914062 84.171875 161.589844 83.8125 161.230469 C 83.453125 160.871094 83.128906 160.476562 82.847656 160.054688 C 82.5625 159.628906 82.324219 159.183594 82.128906 158.710938 C 81.933594 158.242188 81.785156 157.753906 81.6875 157.253906 C 81.589844 156.753906 81.539062 156.25 81.539062 155.738281 C 81.539062 155.230469 81.589844 154.726562 81.6875 154.226562 C 81.785156 153.726562 81.933594 153.238281 82.128906 152.769531 C 82.324219 152.296875 82.5625 151.851562 82.847656 151.425781 C 83.128906 151.003906 83.453125 150.609375 83.8125 150.25 C 84.171875 149.890625 84.566406 149.566406 84.988281 149.285156 C 85.414062 149 85.859375 148.761719 86.332031 148.566406 C 86.804688 148.371094 87.289062 148.222656 87.789062 148.125 C 88.289062 148.023438 88.792969 147.976562 89.304688 147.976562 C 89.8125 147.976562 90.320312 148.023438 90.820312 148.125 C 91.320312 148.222656 91.804688 148.371094 92.273438 148.566406 C 92.746094 148.761719 93.195312 149 93.617188 149.285156 C 94.042969 149.566406 94.433594 149.890625 94.792969 150.25 C 95.15625 150.609375 95.476562 151.003906 95.761719 151.425781 C 96.042969 151.851562 96.28125 152.296875 96.476562 152.769531 C 96.671875 153.238281 96.820312 153.726562 96.917969 154.226562 C 97.019531 154.726562 97.070312 155.230469 97.070312 155.738281 Z M 97.070312 155.738281 " fill-opacity="1" fill-rule="nonzero"/><path fill="#590696" d="M 97.070312 155.738281 C 97.070312 156.25 97.019531 156.753906 96.917969 157.253906 C 96.820312 157.753906 96.671875 158.242188 96.476562 158.710938 C 96.28125 159.183594 96.042969 159.628906 95.761719 160.054688 C 95.476562 160.476562 95.15625 160.871094 94.792969 161.230469 C 94.433594 161.589844 94.042969 161.914062 93.617188 162.195312 C 93.195312 162.480469 92.746094 162.71875 92.273438 162.914062 C 91.804688 163.109375 91.320312 163.257812 90.820312 163.355469 C 90.320312 163.457031 89.8125 163.503906 89.304688 163.503906 C 88.792969 163.503906 88.289062 163.457031 87.789062 163.355469 C 87.289062 163.257812 86.804688 163.109375 86.332031 162.914062 C 85.859375 162.71875 85.414062 162.480469 84.988281 162.195312 C 84.566406 161.914062 84.171875 161.589844 83.8125 161.230469 C 83.453125 160.871094 83.128906 160.476562 82.847656 160.054688 C 82.5625 159.628906 82.324219 159.183594 82.128906 158.710938 C 81.933594 158.242188 81.785156 157.753906 81.6875 157.253906 C 81.589844 156.753906 81.539062 156.25 81.539062 155.738281 C 81.539062 155.230469 81.589844 154.726562 81.6875 154.226562 C 81.785156 153.726562 81.933594 153.238281 82.128906 152.769531 C 82.324219 152.296875 82.5625 151.851562 82.847656 151.425781 C 83.128906 151.003906 83.453125 150.609375 83.8125 150.25 C 84.171875 149.890625 84.566406 149.566406 84.988281 149.285156 C 85.414062 149 85.859375 148.761719 86.332031 148.566406 C 86.804688 148.371094 87.289062 148.222656 87.789062 148.125 C 88.289062 148.023438 88.792969 147.976562 89.304688 147.976562 C 89.8125 147.976562 90.320312 148.023438 90.820312 148.125 C 91.320312 148.222656 91.804688 148.371094 92.273438 148.566406 C 92.746094 148.761719 93.195312 149 93.617188 149.285156 C 94.042969 149.566406 94.433594 149.890625 94.792969 150.25 C 95.15625 150.609375 95.476562 151.003906 95.761719 151.425781 C 96.042969 151.851562 96.28125 152.296875 96.476562 152.769531 C 96.671875 153.238281 96.820312 153.726562 96.917969 154.226562 C 97.019531 154.726562 97.070312 155.230469 97.070312 155.738281 Z M 97.070312 155.738281 " fill-opacity="1" fill-rule="nonzero"/></g><g clip-path="url(#fe077f9d33)"><path fill="#0096ff" d="M 93.585938 179.328125 L 66.179688 151.921875 C 58.820312 144.558594 39.210938 153.097656 45.921875 159.808594 L 65.628906 179.523438 C 66.183594 180.074219 66.675781 180.675781 67.109375 181.324219 C 67.542969 181.972656 67.910156 182.65625 68.207031 183.375 C 68.503906 184.097656 68.730469 184.839844 68.882812 185.605469 C 69.035156 186.371094 69.113281 187.140625 69.113281 187.921875 C 69.113281 188.703125 69.035156 189.472656 68.882812 190.238281 C 68.730469 191.003906 68.503906 191.746094 68.207031 192.46875 C 67.910156 193.1875 67.542969 193.871094 67.109375 194.519531 C 66.675781 195.167969 66.183594 195.769531 65.628906 196.320312 L 45.933594 216.023438 C 39.929688 222.023438 58.894531 230.871094 66.179688 223.585938 L 93.585938 196.179688 C 94.140625 195.628906 94.636719 195.027344 95.074219 194.378906 C 95.507812 193.726562 95.878906 193.039062 96.179688 192.316406 C 96.480469 191.59375 96.707031 190.847656 96.859375 190.082031 C 97.011719 189.3125 97.089844 188.539062 97.089844 187.753906 C 97.089844 186.972656 97.011719 186.195312 96.859375 185.429688 C 96.707031 184.660156 96.480469 183.914062 96.179688 183.191406 C 95.878906 182.46875 95.507812 181.78125 95.074219 181.132812 C 94.636719 180.480469 94.140625 179.878906 93.585938 179.328125 Z M 93.585938 179.328125 " fill-opacity="1" fill-rule="nonzero"/></g><g clip-path="url(#4b5c726eac)"><path fill="#5800ff" d="M 93.585938 179.328125 L 66.179688 151.921875 C 58.820312 144.558594 39.210938 153.097656 45.921875 159.808594 L 65.628906 179.523438 C 66.582031 180.472656 67.347656 181.554688 67.933594 182.765625 C 68.515625 183.976562 68.878906 185.25 69.027344 186.589844 C 75.820312 194.558594 81.464844 202.300781 82.640625 207.125 L 93.601562 196.164062 C 94.15625 195.609375 94.652344 195.007812 95.085938 194.359375 C 95.519531 193.707031 95.886719 193.023438 96.1875 192.300781 C 96.484375 191.578125 96.710938 190.832031 96.863281 190.066406 C 97.015625 189.296875 97.089844 188.523438 97.089844 187.742188 C 97.089844 186.960938 97.011719 186.183594 96.859375 185.417969 C 96.703125 184.652344 96.476562 183.90625 96.175781 183.183594 C 95.875 182.464844 95.507812 181.777344 95.070312 181.128906 C 94.636719 180.480469 94.140625 179.878906 93.585938 179.328125 Z M 93.585938 179.328125 " fill-opacity="1" fill-rule="nonzero"/></g><g fill="#ffffff" fill-opacity="1"><g transform="translate(113.531042, 206.679803)"><g><path d="M 18.796875 0 L 4.421875 0 L 4.421875 -37.109375 L 18.71875 -37.109375 C 21.675781 -37.109375 24.363281 -36.664062 26.78125 -35.78125 C 29.207031 -34.894531 31.285156 -33.632812 33.015625 -32 C 34.753906 -30.363281 36.09375 -28.410156 37.03125 -26.140625 C 37.96875 -23.878906 38.4375 -21.359375 38.4375 -18.578125 C 38.4375 -15.796875 37.96875 -13.265625 37.03125 -10.984375 C 36.09375 -8.703125 34.757812 -6.738281 33.03125 -5.09375 C 31.3125 -3.457031 29.242188 -2.195312 26.828125 -1.3125 C 24.421875 -0.4375 21.742188 0 18.796875 0 Z M 11.109375 -31.078125 L 11.109375 -6.0625 L 18.578125 -6.0625 C 21.285156 -6.0625 23.613281 -6.5625 25.5625 -7.5625 C 27.507812 -8.570312 29 -10.003906 30.03125 -11.859375 C 31.070312 -13.722656 31.59375 -15.925781 31.59375 -18.46875 C 31.59375 -21 31.082031 -23.207031 30.0625 -25.09375 C 29.039062 -26.988281 27.554688 -28.457031 25.609375 -29.5 C 23.671875 -30.550781 21.3125 -31.078125 18.53125 -31.078125 Z M 11.109375 -31.078125 "/></g></g></g><g fill="#ffffff" fill-opacity="1"><g transform="translate(153.794692, 206.679803)"><g><path d="M 16.609375 0.84375 C 14.484375 0.84375 12.519531 0.460938 10.71875 -0.296875 C 8.914062 -1.066406 7.351562 -2.128906 6.03125 -3.484375 C 4.71875 -4.847656 3.695312 -6.429688 2.96875 -8.234375 C 2.238281 -10.035156 1.875 -11.960938 1.875 -14.015625 C 1.875 -16.078125 2.238281 -18.003906 2.96875 -19.796875 C 3.695312 -21.585938 4.71875 -23.164062 6.03125 -24.53125 C 7.351562 -25.894531 8.914062 -26.960938 10.71875 -27.734375 C 12.519531 -28.503906 14.492188 -28.890625 16.640625 -28.890625 C 18.804688 -28.890625 20.789062 -28.503906 22.59375 -27.734375 C 24.394531 -26.960938 25.957031 -25.894531 27.28125 -24.53125 C 28.613281 -23.164062 29.640625 -21.585938 30.359375 -19.796875 C 31.085938 -18.003906 31.453125 -16.078125 31.453125 -14.015625 C 31.453125 -11.941406 31.085938 -10.007812 30.359375 -8.21875 C 29.640625 -6.425781 28.613281 -4.847656 27.28125 -3.484375 C 25.957031 -2.128906 24.390625 -1.066406 22.578125 -0.296875 C 20.765625 0.460938 18.773438 0.84375 16.609375 0.84375 Z M 16.671875 -5.296875 C 18.253906 -5.296875 19.660156 -5.671875 20.890625 -6.421875 C 22.128906 -7.179688 23.109375 -8.210938 23.828125 -9.515625 C 24.546875 -10.828125 24.90625 -12.328125 24.90625 -14.015625 C 24.90625 -15.710938 24.546875 -17.21875 23.828125 -18.53125 C 23.109375 -19.851562 22.128906 -20.890625 20.890625 -21.640625 C 19.660156 -22.398438 18.253906 -22.78125 16.671875 -22.78125 C 15.109375 -22.78125 13.703125 -22.398438 12.453125 -21.640625 C 11.203125 -20.890625 10.21875 -19.851562 9.5 -18.53125 C 8.789062 -17.21875 8.4375 -15.710938 8.4375 -14.015625 C 8.4375 -12.328125 8.789062 -10.828125 9.5 -9.515625 C 10.21875 -8.210938 11.203125 -7.179688 12.453125 -6.421875 C 13.703125 -5.671875 15.109375 -5.296875 16.671875 -5.296875 Z M 16.671875 -5.296875 "/></g></g></g><g fill="#ffffff" fill-opacity="1"><g transform="translate(187.129503, 206.679803)"><g><path d="M 16.375 0.84375 C 14.28125 0.84375 12.347656 0.457031 10.578125 -0.3125 C 8.816406 -1.082031 7.285156 -2.148438 5.984375 -3.515625 C 4.679688 -4.878906 3.671875 -6.460938 2.953125 -8.265625 C 2.234375 -10.066406 1.875 -11.984375 1.875 -14.015625 C 1.875 -16.054688 2.234375 -17.972656 2.953125 -19.765625 C 3.671875 -21.554688 4.679688 -23.140625 5.984375 -24.515625 C 7.285156 -25.890625 8.816406 -26.960938 10.578125 -27.734375 C 12.347656 -28.503906 14.28125 -28.890625 16.375 -28.890625 C 18.789062 -28.890625 20.945312 -28.421875 22.84375 -27.484375 C 24.75 -26.546875 26.34375 -25.265625 27.625 -23.640625 C 28.90625 -22.023438 29.8125 -20.191406 30.34375 -18.140625 L 23.59375 -18.140625 C 22.976562 -19.703125 22.023438 -20.859375 20.734375 -21.609375 C 19.441406 -22.367188 17.992188 -22.75 16.390625 -22.75 C 15.378906 -22.75 14.398438 -22.550781 13.453125 -22.15625 C 12.503906 -21.769531 11.648438 -21.203125 10.890625 -20.453125 C 10.140625 -19.710938 9.539062 -18.800781 9.09375 -17.71875 C 8.65625 -16.632812 8.4375 -15.398438 8.4375 -14.015625 C 8.4375 -12.640625 8.65625 -11.410156 9.09375 -10.328125 C 9.539062 -9.242188 10.140625 -8.320312 10.890625 -7.5625 C 11.648438 -6.8125 12.503906 -6.238281 13.453125 -5.84375 C 14.410156 -5.457031 15.390625 -5.265625 16.390625 -5.265625 C 17.992188 -5.265625 19.441406 -5.660156 20.734375 -6.453125 C 22.023438 -7.242188 22.976562 -8.515625 23.59375 -10.265625 L 30.3125 -10.265625 C 29.84375 -8.097656 28.960938 -6.175781 27.671875 -4.5 C 26.378906 -2.820312 24.769531 -1.507812 22.84375 -0.5625 C 20.925781 0.375 18.769531 0.84375 16.375 0.84375 Z M 16.375 0.84375 "/></g></g></g><g fill="#ffffff" fill-opacity="1"><g transform="translate(218.909417, 206.679803)"><g><path d="M 19.609375 0.8125 C 17.378906 0.8125 15.300781 0.457031 13.375 -0.25 C 11.457031 -0.957031 9.773438 -1.96875 8.328125 -3.28125 C 6.890625 -4.601562 5.769531 -6.203125 4.96875 -8.078125 C 4.164062 -9.953125 3.765625 -12.039062 3.765625 -14.34375 L 3.765625 -37.109375 L 10.53125 -37.109375 L 10.53125 -14.84375 C 10.53125 -13.09375 10.878906 -11.503906 11.578125 -10.078125 C 12.273438 -8.648438 13.300781 -7.515625 14.65625 -6.671875 C 16.019531 -5.828125 17.671875 -5.40625 19.609375 -5.40625 C 21.523438 -5.40625 23.15625 -5.820312 24.5 -6.65625 C 25.84375 -7.488281 26.875 -8.617188 27.59375 -10.046875 C 28.3125 -11.484375 28.671875 -13.070312 28.671875 -14.8125 L 28.671875 -37.109375 L 35.46875 -37.109375 L 35.46875 -14.34375 C 35.46875 -12.125 35.082031 -10.09375 34.3125 -8.25 C 33.550781 -6.40625 32.46875 -4.804688 31.0625 -3.453125 C 29.664062 -2.097656 27.992188 -1.046875 26.046875 -0.296875 C 24.109375 0.441406 21.960938 0.8125 19.609375 0.8125 Z M 19.609375 0.8125 "/></g></g></g><g fill="#ffffff" fill-opacity="1"><g transform="translate(258.10919, 206.679803)"><g><path d="M 10.484375 0 L 3.875 0 L 3.875 -28.046875 L 10.15625 -28.046875 L 10.15625 -23.6875 C 10.695312 -24.695312 11.441406 -25.59375 12.390625 -26.375 C 13.335938 -27.164062 14.4375 -27.78125 15.6875 -28.21875 C 16.9375 -28.664062 18.28125 -28.890625 19.71875 -28.890625 C 23.488281 -28.890625 26.3125 -27.691406 28.1875 -25.296875 C 30.0625 -22.910156 31 -19.515625 31 -15.109375 L 31 0 L 24.390625 0 L 24.390625 -14.984375 C 24.390625 -17.765625 23.804688 -19.765625 22.640625 -20.984375 C 21.484375 -22.203125 19.898438 -22.8125 17.890625 -22.8125 C 16.597656 -22.8125 15.390625 -22.484375 14.265625 -21.828125 C 13.140625 -21.171875 12.226562 -20.210938 11.53125 -18.953125 C 10.832031 -17.703125 10.484375 -16.160156 10.484375 -14.328125 Z M 10.484375 0 "/></g></g></g><g fill="#ffffff" fill-opacity="1"><g transform="translate(292.753389, 206.679803)"><g><path d="M 7.125 -32.40625 C 5.851562 -32.40625 4.859375 -32.773438 4.140625 -33.515625 C 3.421875 -34.253906 3.0625 -35.148438 3.0625 -36.203125 C 3.0625 -37.222656 3.421875 -38.101562 4.140625 -38.84375 C 4.859375 -39.59375 5.859375 -39.96875 7.140625 -39.96875 C 8.472656 -39.96875 9.5 -39.59375 10.21875 -38.84375 C 10.9375 -38.101562 11.296875 -37.222656 11.296875 -36.203125 C 11.296875 -35.148438 10.9375 -34.253906 10.21875 -33.515625 C 9.5 -32.773438 8.46875 -32.40625 7.125 -32.40625 Z M 10.484375 0 L 3.875 0 L 3.875 -28.046875 L 10.484375 -28.046875 Z M 10.484375 0 "/></g></g></g><g fill="#ffffff" fill-opacity="1"><g transform="translate(307.074809, 206.679803)"><g><path d="M 21.109375 0 L 15.421875 0 C 14.578125 0 13.710938 -0.078125 12.828125 -0.234375 C 11.953125 -0.390625 11.113281 -0.675781 10.3125 -1.09375 C 9.507812 -1.507812 8.796875 -2.113281 8.171875 -2.90625 C 7.546875 -3.695312 7.046875 -4.722656 6.671875 -5.984375 C 6.296875 -7.253906 6.109375 -8.816406 6.109375 -10.671875 L 6.109375 -22.375 L 0.296875 -22.375 L 0.296875 -28.046875 L 6.109375 -28.046875 L 6.109375 -36.265625 L 12.71875 -36.3125 L 12.71875 -28.046875 L 21.109375 -28.046875 L 21.109375 -22.375 L 12.71875 -22.375 L 12.71875 -10.375 C 12.71875 -9.0625 12.90625 -8.050781 13.28125 -7.34375 C 13.664062 -6.632812 14.171875 -6.144531 14.796875 -5.875 C 15.421875 -5.613281 16.082031 -5.484375 16.78125 -5.484375 L 21.109375 -5.484375 Z M 21.109375 0 "/></g></g></g><g fill="#ffffff" fill-opacity="1"><g transform="translate(329.661735, 206.679803)"><g><path d="M 6.0625 9.578125 L 1.34375 9.578125 L 1.34375 4.125 L 6 4.125 C 6.976562 4.125 7.78125 3.960938 8.40625 3.640625 C 9.039062 3.328125 9.578125 2.84375 10.015625 2.1875 C 10.453125 1.53125 10.859375 0.679688 11.234375 -0.359375 L 11.5625 -1.3125 L 0.8125 -28.046875 L 7.78125 -28.046875 L 14.375 -11.078125 L 15.09375 -8.1875 L 15.828125 -11.046875 L 22.3125 -28.015625 L 29.359375 -28.046875 L 18.421875 -0.625 C 17.597656 1.46875 16.773438 3.179688 15.953125 4.515625 C 15.140625 5.847656 14.265625 6.882812 13.328125 7.625 C 12.390625 8.363281 11.332031 8.875 10.15625 9.15625 C 8.988281 9.4375 7.625 9.578125 6.0625 9.578125 Z M 6.0625 9.578125 "/></g></g></g></svg>