<svg xmlns="http://www.w3.org/2000/svg" xmlns:xlink="http://www.w3.org/1999/xlink" width="500" zoomAndPan="magnify" viewBox="0 0 375 374.999991" height="500" preserveAspectRatio="xMidYMid meet" version="1.0"><defs><clipPath id="bb619db3a9"><path d="M 71.429688 80 L 211 80 L 211 295 L 71.429688 295 Z M 71.429688 80 " clip-rule="nonzero"/></clipPath><clipPath id="9689d66b16"><path d="M 71.429688 80 L 211 80 L 211 243 L 71.429688 243 Z M 71.429688 80 " clip-rule="nonzero"/></clipPath><clipPath id="c259d6eb79"><path d="M 261 79.660156 L 303.929688 79.660156 L 303.929688 123 L 261 123 Z M 261 79.660156 " clip-rule="nonzero"/></clipPath><clipPath id="8aad239b83"><path d="M 160 82 L 303.929688 82 L 303.929688 294 L 160 294 Z M 160 82 " clip-rule="nonzero"/></clipPath><clipPath id="4ff114b92f"><path d="M 160 82 L 303.929688 82 L 303.929688 241 L 160 241 Z M 160 82 " clip-rule="nonzero"/></clipPath></defs><g clip-path="url(#bb619db3a9)"><path fill="#72ffff" d="M 126.644531 90.464844 L 201.261719 165.078125 C 202.011719 165.828125 202.722656 166.613281 203.394531 167.429688 C 204.066406 168.25 204.695312 169.101562 205.285156 169.980469 C 205.871094 170.863281 206.417969 171.769531 206.914062 172.703125 C 207.414062 173.636719 207.867188 174.59375 208.273438 175.574219 C 208.679688 176.550781 209.035156 177.546875 209.34375 178.5625 C 209.648438 179.578125 209.90625 180.601562 210.113281 181.640625 C 210.320312 182.679688 210.476562 183.726562 210.578125 184.78125 C 210.683594 185.835938 210.734375 186.894531 210.734375 187.953125 C 210.734375 189.011719 210.683594 190.070312 210.578125 191.125 C 210.476562 192.175781 210.320312 193.222656 210.113281 194.261719 C 209.90625 195.300781 209.648438 196.328125 209.34375 197.34375 C 209.035156 198.355469 208.679688 199.351562 208.273438 200.332031 C 207.867188 201.3125 207.414062 202.265625 206.914062 203.203125 C 206.417969 204.136719 205.871094 205.042969 205.285156 205.925781 C 204.695312 206.804688 204.066406 207.65625 203.394531 208.472656 C 202.722656 209.292969 202.011719 210.078125 201.261719 210.828125 L 126.644531 285.441406 C 106.265625 305.820312 71.414062 291.378906 71.429688 262.542969 L 71.429688 113.3125 C 71.414062 84.527344 106.265625 70.085938 126.644531 90.464844 Z M 126.644531 90.464844 " fill-opacity="1" fill-rule="nonzero"/></g><g clip-path="url(#9689d66b16)"><path fill="#00d7ff" d="M 126.644531 90.464844 C 106.382812 70.203125 71.929688 84.363281 71.445312 112.832031 C 71.445312 112.832031 188.859375 223.925781 170.1875 242.03125 L 201.328125 210.894531 C 202.078125 210.144531 202.789062 209.359375 203.460938 208.539062 C 204.132812 207.722656 204.761719 206.871094 205.351562 205.992188 C 205.9375 205.109375 206.484375 204.203125 206.980469 203.269531 C 207.480469 202.332031 207.933594 201.375 208.339844 200.398438 C 208.746094 199.417969 209.101562 198.421875 209.410156 197.410156 C 209.714844 196.394531 209.972656 195.367188 210.179688 194.328125 C 210.386719 193.289062 210.542969 192.242188 210.644531 191.191406 C 210.75 190.136719 210.800781 189.078125 210.800781 188.019531 C 210.800781 186.960938 210.75 185.902344 210.644531 184.847656 C 210.542969 183.792969 210.386719 182.746094 210.179688 181.707031 C 209.972656 180.667969 209.714844 179.644531 209.410156 178.628906 C 209.101562 177.613281 208.746094 176.617188 208.339844 175.640625 C 207.933594 174.660156 207.480469 173.703125 206.980469 172.769531 C 206.484375 171.835938 205.9375 170.929688 205.351562 170.046875 C 204.761719 169.167969 204.132812 168.316406 203.460938 167.496094 C 202.789062 166.679688 202.078125 165.894531 201.328125 165.144531 Z M 126.644531 90.464844 " fill-opacity="1" fill-rule="nonzero"/></g><g clip-path="url(#c259d6eb79)"><path fill="#590696" d="M 303.566406 101.042969 C 303.566406 101.734375 303.53125 102.425781 303.464844 103.113281 C 303.398438 103.804688 303.296875 104.488281 303.160156 105.167969 C 303.027344 105.847656 302.859375 106.515625 302.65625 107.179688 C 302.457031 107.84375 302.222656 108.492188 301.957031 109.132812 C 301.691406 109.773438 301.398438 110.398438 301.070312 111.007812 C 300.746094 111.617188 300.390625 112.210938 300.003906 112.789062 C 299.621094 113.363281 299.207031 113.917969 298.769531 114.453125 C 298.328125 114.988281 297.863281 115.5 297.375 115.992188 C 296.886719 116.480469 296.371094 116.945312 295.835938 117.382812 C 295.300781 117.824219 294.746094 118.234375 294.171875 118.621094 C 293.59375 119.003906 293.003906 119.359375 292.390625 119.6875 C 291.78125 120.011719 291.15625 120.308594 290.515625 120.574219 C 289.875 120.839844 289.226562 121.070312 288.5625 121.273438 C 287.902344 121.472656 287.230469 121.640625 286.550781 121.777344 C 285.871094 121.914062 285.1875 122.015625 284.5 122.082031 C 283.808594 122.148438 283.117188 122.183594 282.425781 122.183594 C 281.734375 122.183594 281.042969 122.148438 280.355469 122.082031 C 279.664062 122.015625 278.980469 121.914062 278.300781 121.777344 C 277.621094 121.640625 276.953125 121.472656 276.289062 121.273438 C 275.625 121.070312 274.976562 120.839844 274.335938 120.574219 C 273.695312 120.308594 273.070312 120.011719 272.460938 119.6875 C 271.851562 119.359375 271.257812 119.003906 270.679688 118.621094 C 270.105469 118.234375 269.550781 117.824219 269.015625 117.382812 C 268.480469 116.945312 267.964844 116.480469 267.476562 115.992188 C 266.988281 115.5 266.523438 114.988281 266.082031 114.453125 C 265.644531 113.917969 265.234375 113.363281 264.847656 112.789062 C 264.464844 112.210938 264.109375 111.617188 263.78125 111.007812 C 263.453125 110.398438 263.160156 109.773438 262.894531 109.132812 C 262.628906 108.492188 262.394531 107.84375 262.195312 107.179688 C 261.996094 106.515625 261.828125 105.847656 261.691406 105.167969 C 261.554688 104.488281 261.453125 103.804688 261.386719 103.113281 C 261.320312 102.425781 261.285156 101.734375 261.285156 101.042969 C 261.285156 100.351562 261.320312 99.660156 261.386719 98.96875 C 261.453125 98.28125 261.554688 97.597656 261.691406 96.917969 C 261.828125 96.238281 261.996094 95.566406 262.195312 94.90625 C 262.394531 94.242188 262.628906 93.589844 262.894531 92.953125 C 263.160156 92.3125 263.453125 91.6875 263.78125 91.078125 C 264.109375 90.464844 264.464844 89.871094 264.847656 89.296875 C 265.234375 88.722656 265.644531 88.164062 266.082031 87.628906 C 266.523438 87.09375 266.988281 86.582031 267.476562 86.09375 C 267.964844 85.605469 268.480469 85.140625 269.015625 84.699219 C 269.550781 84.261719 270.105469 83.847656 270.679688 83.464844 C 271.257812 83.078125 271.851562 82.722656 272.460938 82.398438 C 273.070312 82.070312 273.695312 81.777344 274.335938 81.511719 C 274.976562 81.246094 275.625 81.011719 276.289062 80.8125 C 276.953125 80.609375 277.621094 80.441406 278.300781 80.308594 C 278.980469 80.171875 279.664062 80.070312 280.355469 80.003906 C 281.042969 79.933594 281.734375 79.902344 282.425781 79.902344 C 283.117188 79.902344 283.808594 79.933594 284.5 80.003906 C 285.1875 80.070312 285.871094 80.171875 286.550781 80.308594 C 287.230469 80.441406 287.902344 80.609375 288.5625 80.8125 C 289.226562 81.011719 289.875 81.246094 290.515625 81.511719 C 291.15625 81.777344 291.78125 82.070312 292.390625 82.398438 C 293.003906 82.722656 293.59375 83.078125 294.171875 83.464844 C 294.746094 83.847656 295.300781 84.261719 295.835938 84.699219 C 296.375 85.140625 296.886719 85.605469 297.375 86.09375 C 297.863281 86.582031 298.328125 87.09375 298.769531 87.628906 C 299.207031 88.164062 299.621094 88.722656 300.003906 89.296875 C 300.390625 89.871094 300.746094 90.464844 301.070312 91.078125 C 301.398438 91.6875 301.691406 92.3125 301.957031 92.953125 C 302.222656 93.589844 302.457031 94.242188 302.65625 94.90625 C 302.859375 95.566406 303.027344 96.238281 303.160156 96.917969 C 303.296875 97.597656 303.398438 98.28125 303.464844 98.96875 C 303.53125 99.660156 303.566406 100.351562 303.566406 101.042969 Z M 303.566406 101.042969 " fill-opacity="1" fill-rule="nonzero"/><path fill="#590696" d="M 303.566406 101.042969 C 303.566406 101.734375 303.53125 102.425781 303.464844 103.113281 C 303.398438 103.804688 303.296875 104.488281 303.160156 105.167969 C 303.027344 105.847656 302.859375 106.515625 302.65625 107.179688 C 302.457031 107.84375 302.222656 108.492188 301.957031 109.132812 C 301.691406 109.773438 301.398438 110.398438 301.070312 111.007812 C 300.746094 111.617188 300.390625 112.210938 300.003906 112.789062 C 299.621094 113.363281 299.207031 113.917969 298.769531 114.453125 C 298.328125 114.988281 297.863281 115.5 297.375 115.992188 C 296.886719 116.480469 296.371094 116.945312 295.835938 117.382812 C 295.300781 117.824219 294.746094 118.234375 294.171875 118.621094 C 293.59375 119.003906 293.003906 119.359375 292.390625 119.6875 C 291.78125 120.011719 291.15625 120.308594 290.515625 120.574219 C 289.875 120.839844 289.226562 121.070312 288.5625 121.273438 C 287.902344 121.472656 287.230469 121.640625 286.550781 121.777344 C 285.871094 121.914062 285.1875 122.015625 284.5 122.082031 C 283.808594 122.148438 283.117188 122.183594 282.425781 122.183594 C 281.734375 122.183594 281.042969 122.148438 280.355469 122.082031 C 279.664062 122.015625 278.980469 121.914062 278.300781 121.777344 C 277.621094 121.640625 276.953125 121.472656 276.289062 121.273438 C 275.625 121.070312 274.976562 120.839844 274.335938 120.574219 C 273.695312 120.308594 273.070312 120.011719 272.460938 119.6875 C 271.851562 119.359375 271.257812 119.003906 270.679688 118.621094 C 270.105469 118.234375 269.550781 117.824219 269.015625 117.382812 C 268.480469 116.945312 267.964844 116.480469 267.476562 115.992188 C 266.988281 115.5 266.523438 114.988281 266.082031 114.453125 C 265.644531 113.917969 265.234375 113.363281 264.847656 112.789062 C 264.464844 112.210938 264.109375 111.617188 263.78125 111.007812 C 263.453125 110.398438 263.160156 109.773438 262.894531 109.132812 C 262.628906 108.492188 262.394531 107.84375 262.195312 107.179688 C 261.996094 106.515625 261.828125 105.847656 261.691406 105.167969 C 261.554688 104.488281 261.453125 103.804688 261.386719 103.113281 C 261.320312 102.425781 261.285156 101.734375 261.285156 101.042969 C 261.285156 100.351562 261.320312 99.660156 261.386719 98.96875 C 261.453125 98.28125 261.554688 97.597656 261.691406 96.917969 C 261.828125 96.238281 261.996094 95.566406 262.195312 94.90625 C 262.394531 94.242188 262.628906 93.589844 262.894531 92.953125 C 263.160156 92.3125 263.453125 91.6875 263.78125 91.078125 C 264.109375 90.464844 264.464844 89.871094 264.847656 89.296875 C 265.234375 88.722656 265.644531 88.164062 266.082031 87.628906 C 266.523438 87.09375 266.988281 86.582031 267.476562 86.09375 C 267.964844 85.605469 268.480469 85.140625 269.015625 84.699219 C 269.550781 84.261719 270.105469 83.847656 270.679688 83.464844 C 271.257812 83.078125 271.851562 82.722656 272.460938 82.398438 C 273.070312 82.070312 273.695312 81.777344 274.335938 81.511719 C 274.976562 81.246094 275.625 81.011719 276.289062 80.8125 C 276.953125 80.609375 277.621094 80.441406 278.300781 80.308594 C 278.980469 80.171875 279.664062 80.070312 280.355469 80.003906 C 281.042969 79.933594 281.734375 79.902344 282.425781 79.902344 C 283.117188 79.902344 283.808594 79.933594 284.5 80.003906 C 285.1875 80.070312 285.871094 80.171875 286.550781 80.308594 C 287.230469 80.441406 287.902344 80.609375 288.5625 80.8125 C 289.226562 81.011719 289.875 81.246094 290.515625 81.511719 C 291.15625 81.777344 291.78125 82.070312 292.390625 82.398438 C 293.003906 82.722656 293.59375 83.078125 294.171875 83.464844 C 294.746094 83.847656 295.300781 84.261719 295.835938 84.699219 C 296.375 85.140625 296.886719 85.605469 297.375 86.09375 C 297.863281 86.582031 298.328125 87.09375 298.769531 87.628906 C 299.207031 88.164062 299.621094 88.722656 300.003906 89.296875 C 300.390625 89.871094 300.746094 90.464844 301.070312 91.078125 C 301.398438 91.6875 301.691406 92.3125 301.957031 92.953125 C 302.222656 93.589844 302.457031 94.242188 302.65625 94.90625 C 302.859375 95.566406 303.027344 96.238281 303.160156 96.917969 C 303.296875 97.597656 303.398438 98.28125 303.464844 98.96875 C 303.53125 99.660156 303.566406 100.351562 303.566406 101.042969 Z M 303.566406 101.042969 " fill-opacity="1" fill-rule="nonzero"/></g><g clip-path="url(#8aad239b83)"><path fill="#0096ff" d="M 294.082031 165.261719 L 219.46875 90.644531 C 199.4375 70.597656 146.046875 93.847656 164.316406 112.117188 L 217.976562 165.792969 C 218.722656 166.539062 219.433594 167.324219 220.109375 168.140625 C 220.78125 168.960938 221.410156 169.808594 222 170.691406 C 222.589844 171.570312 223.132812 172.476562 223.632812 173.414062 C 224.132812 174.347656 224.585938 175.300781 224.992188 176.28125 C 225.394531 177.257812 225.753906 178.253906 226.0625 179.269531 C 226.367188 180.28125 226.625 181.308594 226.832031 182.347656 C 227.039062 183.386719 227.195312 184.433594 227.296875 185.488281 C 227.402344 186.542969 227.453125 187.597656 227.453125 188.65625 C 227.453125 189.714844 227.402344 190.773438 227.296875 191.828125 C 227.195312 192.882812 227.039062 193.929688 226.832031 194.96875 C 226.625 196.003906 226.367188 197.03125 226.0625 198.046875 C 225.753906 199.058594 225.394531 200.054688 224.992188 201.035156 C 224.585938 202.011719 224.132812 202.96875 223.632812 203.902344 C 223.132812 204.835938 222.589844 205.742188 222 206.625 C 221.410156 207.503906 220.78125 208.355469 220.109375 209.171875 C 219.433594 209.992188 218.722656 210.773438 217.976562 211.523438 L 164.351562 265.164062 C 148.003906 281.496094 199.636719 305.589844 219.46875 285.757812 L 294.082031 211.140625 C 294.835938 210.390625 295.550781 209.605469 296.230469 208.785156 C 296.90625 207.964844 297.539062 207.113281 298.132812 206.230469 C 298.726562 205.347656 299.273438 204.4375 299.777344 203.503906 C 300.277344 202.566406 300.734375 201.605469 301.144531 200.625 C 301.550781 199.640625 301.910156 198.640625 302.21875 197.625 C 302.53125 196.609375 302.789062 195.578125 302.996094 194.535156 C 303.207031 193.492188 303.363281 192.441406 303.464844 191.382812 C 303.570312 190.324219 303.625 189.265625 303.625 188.203125 C 303.625 187.136719 303.570312 186.078125 303.464844 185.019531 C 303.363281 183.960938 303.207031 182.910156 302.996094 181.867188 C 302.789062 180.824219 302.53125 179.792969 302.21875 178.777344 C 301.910156 177.761719 301.550781 176.761719 301.144531 175.777344 C 300.734375 174.796875 300.277344 173.835938 299.777344 172.902344 C 299.273438 171.964844 298.726562 171.054688 298.132812 170.171875 C 297.539062 169.289062 296.90625 168.4375 296.230469 167.617188 C 295.550781 166.796875 294.835938 166.011719 294.082031 165.261719 Z M 294.082031 165.261719 " fill-opacity="1" fill-rule="nonzero"/></g><g clip-path="url(#4ff114b92f)"><path fill="#5800ff" d="M 294.082031 165.261719 L 219.46875 90.644531 C 199.4375 70.597656 146.046875 93.847656 164.316406 112.117188 L 217.976562 165.792969 C 220.566406 168.378906 222.652344 171.320312 224.242188 174.621094 C 225.828125 177.917969 226.824219 181.386719 227.226562 185.027344 C 245.714844 206.730469 261.085938 227.804688 264.285156 240.9375 L 294.132812 211.09375 C 294.882812 210.339844 295.597656 209.554688 296.269531 208.734375 C 296.945312 207.914062 297.578125 207.0625 298.167969 206.179688 C 298.757812 205.296875 299.300781 204.386719 299.804688 203.453125 C 300.304688 202.515625 300.757812 201.554688 301.164062 200.574219 C 301.570312 199.59375 301.925781 198.59375 302.234375 197.578125 C 302.542969 196.5625 302.800781 195.535156 303.003906 194.492188 C 303.210938 193.449219 303.367188 192.402344 303.46875 191.34375 C 303.574219 190.289062 303.625 189.226562 303.625 188.167969 C 303.621094 187.105469 303.570312 186.046875 303.464844 184.988281 C 303.359375 183.933594 303.199219 182.882812 302.992188 181.839844 C 302.78125 180.800781 302.523438 179.773438 302.214844 178.757812 C 301.902344 177.742188 301.542969 176.742188 301.136719 175.761719 C 300.726562 174.78125 300.273438 173.824219 299.769531 172.890625 C 299.265625 171.953125 298.71875 171.046875 298.128906 170.164062 C 297.535156 169.28125 296.902344 168.433594 296.226562 167.613281 C 295.550781 166.792969 294.835938 166.011719 294.082031 165.261719 Z M 294.082031 165.261719 " fill-opacity="1" fill-rule="nonzero"/></g></svg>